<svg height="127" viewBox="0 0 885.839 126.3684" width="886" xmlns="http://www.w3.org/2000/svg">
    <path d="m63.1842,0C45.776,0,30.9025,6.1885,18.5265,18.5638,6.1878,30.94,0,45.8134,0,63.1842c0,17.409,6.1878,32.2824,18.5265,44.6204,12.376,12.3762,27.2495,18.5638,44.6577,18.5638,17.3339,0,32.2073-6.1876,44.5833-18.5638,12.376-12.338,18.6012-27.2114,18.6012-44.6204,0-17.3708-6.2252-32.2442-18.6012-44.6204C95.3914,6.1885,80.5181,0,63.1842,0Zm26.765,89.9488c-7.4554,7.3817-16.3646,11.0721-26.765,11.0721-10.4748,0-19.3839-3.6904-26.7648-11.0721-7.4181-7.4172-11.1086-16.3269-11.1086-26.7646,0-10.3995,3.6905-19.3465,11.1086-26.7646,7.3809-7.4554,16.29-11.1831,26.7648-11.1831,10.4004,0,19.3096,3.7277,26.765,11.1831,7.4554,7.4181,11.1459,16.365,11.1459,26.7646,0,10.4377-3.6905,19.3474-11.1459,26.7646Zm248.898-28.3299L394.0917,1.0438h-107.5441v24.9008h50.995l-35.0031,35.6743,56.2881,63.632h36.1674l-56.1478-63.632ZM144.0008,1.0438v124.207h26.1682v-52.2623l37.5379,50.1746,37.5006-50.1746v52.2623h26.2058V1.0438l-63.7064,78.5055L144.0008,1.0438Z" fill="#0C0D0F"></path>
    <path d="m874.4707,1.0308h-452.0641s-11.3682,0-11.3682,11.3711v101.4765s0,11.3708,11.3682,11.3708h452.0641s11.3682,0,11.3682-11.3711V12.4016s0-11.3708-11.3682-11.3708Z" fill="#0C0D0F"></path>
    <path d="m437.4737,26.4218h27.1074c14.9772,0,25.2307,8.3808,25.2307,23.9515,0,8.7698-3.7453,16.3607-11.0434,20.4989l15.7712,28.976h-19.0193l-13.6018-25.6237h-7.4906v25.6237h-16.9541V26.4218Zm27.2036,32.1318c5.5177,0,8.2766-4.1383,8.2766-8.1803,0-4.9282-3.3483-8.2806-8.2766-8.2806h-10.2495v16.4609h10.2495Z" fill="#ffffff"></path>
    <path d="m502.5153,26.4218h47.9993v15.6709h-31.1454v13.0123h26.3174v15.7672h-26.3174v13.2088h31.1454v15.7672h-47.9993V26.4218Z" fill="#ffffff"></path>
    <path d="m554.1556,26.4218h18.3295l14.6845,47.903,14.5882-47.903h18.4298l-23.8513,73.4265h-18.3295l-23.8513-73.4265Z" fill="#ffffff"></path>
    <path d="m628.1635,26.4218h16.8539v73.4265h-16.8539V26.4218Z" fill="#ffffff"></path>
    <path d="m658.4227,26.4218h47.9953v15.6709h-31.1454v13.0123h26.3134v15.7672h-26.3134v13.2088h31.1454v15.7672h-47.9953V26.4218Z" fill="#ffffff"></path>
    <path d="m710.055,26.4218h18.2373l10.049,45.0439,8.4771-35.9734-2.0691-8.0841v-.9865h20.9922l10.6465,45.0439,10.049-45.0439h18.1371l-18.2333,73.4265h-18.526l-10.45-38.9287-10.5462,38.9287h-18.4298l-18.3336-73.4265Z" fill="#ffffff"></path>
    <path d="m808.3072,84.9673l12.9121-9.66c3.0556,5.9147,8.0841,9.9567,14.6845,9.9567,3.7453,0,7.8876-1.4797,7.8876-5.9147,0-3.1558-1.9689-4.6315-4.9282-5.618l-13.2088-4.5313c-10.7387-3.8456-17.0504-10.6465-17.0504-21.3891,0-13.9948,10.7467-22.5681,24.7415-22.5681,9.4595,0,19.2157,4.038,24.8377,14.2915l-12.8158,9.5598c-2.4621-5.0285-6.6004-8.0841-12.0219-8.0841-3.6491,0-7.9838,1.5759-7.9838,6.2074,0,2.9594,2.1694,4.832,5.1247,5.8185l12.8118,4.3348c10.446,3.4486,17.1466,10.053,17.1466,21.0924,0,12.1221-9.4595,22.5681-25.4232,22.5681-10.5462,0-20.8959-4.9282-26.7144-16.0639Z" fill="#ffffff"></path>
  </svg>